SplineFontDB: 3.2
FontName: sumiblifai
FullName: sumiblifai
FamilyName: sumiblifai
Weight: Book
Copyright: Copyright (c) 2022, Max
Version: 001.000
ItalicAngle: 0
UnderlinePosition: -25
UnderlineWidth: 12
Ascent: 256
Descent: 0
InvalidEm: 0
sfntRevision: 0x00010000
LayerCount: 2
Layer: 0 1 "Back" 1
Layer: 1 1 "Fore" 0
XUID: [1021 131 1957779125 5882]
StyleMap: 0x0000
FSType: 0
OS2Version: 4
OS2_WeightWidthSlopeOnly: 0
OS2_UseTypoMetrics: 1
CreationTime: 1641150497
ModificationTime: 1647722075
PfmFamily: 17
TTFWeight: 400
TTFWidth: 5
LineGap: 23
VLineGap: 0
Panose: 2 0 5 3 0 0 0 0 0 0
OS2TypoAscent: 256
OS2TypoAOffset: 0
OS2TypoDescent: 0
OS2TypoDOffset: 0
OS2TypoLinegap: 23
OS2WinAscent: 256
OS2WinAOffset: 0
OS2WinDescent: 0
OS2WinDOffset: 0
HheadAscent: 256
HheadAOffset: 0
HheadDescent: 0
HheadDOffset: 0
OS2SubXSize: 166
OS2SubYSize: 179
OS2SubXOff: 0
OS2SubYOff: 35
OS2SupXSize: 166
OS2SupYSize: 179
OS2SupXOff: 0
OS2SupYOff: 122
OS2StrikeYSize: 12
OS2StrikeYPos: 66
OS2CapHeight: 241
OS2XHeight: 76
OS2Vendor: 'PfEd'
OS2CodePages: 00000001.00000000
OS2UnicodeRanges: 00000003.00000000.00000000.00000000
Lookup: 4 0 1 "'liga' Standard Ligatures in Latin lookup 0" { "'liga' Standard Ligatures in Latin lookup 0 subtable"  } ['liga' ('DFLT' <'dflt' > 'latn' <'dflt' > ) ]
MarkAttachClasses: 1
DEI: 91125
TtTable: prep
PUSHW_1
 511
SCANCTRL
PUSHB_1
 1
SCANTYPE
SVTCA[y-axis]
MPPEM
PUSHB_1
 8
LT
IF
PUSHB_2
 1
 1
INSTCTRL
EIF
PUSHB_2
 70
 6
CALL
IF
POP
PUSHB_1
 16
EIF
MPPEM
PUSHB_1
 20
GT
IF
POP
PUSHB_1
 128
EIF
SCVTCI
PUSHB_1
 20
CALL
EndTTInstrs
TtTable: fpgm
PUSHB_1
 0
FDEF
PUSHB_1
 0
SZP0
MPPEM
PUSHB_1
 42
LT
IF
PUSHB_1
 74
SROUND
EIF
PUSHB_1
 0
SWAP
MIAP[rnd]
RTG
PUSHB_1
 6
CALL
IF
RTDG
EIF
MPPEM
PUSHB_1
 42
LT
IF
RDTG
EIF
DUP
MDRP[rp0,rnd,grey]
PUSHB_1
 1
SZP0
MDAP[no-rnd]
RTG
ENDF
PUSHB_1
 1
FDEF
DUP
MDRP[rp0,min,white]
PUSHB_1
 12
CALL
ENDF
PUSHB_1
 2
FDEF
MPPEM
GT
IF
RCVT
SWAP
EIF
POP
ENDF
PUSHB_1
 3
FDEF
ROUND[Black]
RTG
DUP
PUSHB_1
 64
LT
IF
POP
PUSHB_1
 64
EIF
ENDF

StartChar: five
Encoding: 53 53 2
Width: 0
GlyphClass: 2
LayerCount: 2
Back
SplineSet
11 156 m 1,105,-1
 245 156 l 1,106,-1
 245 146 l 1,107,-1
 171 146 l 1,108,109
 171 145 171 145 171 143 c 0,110,111
 171 142 171 142 171 139.5 c 128,-1,112
 171 137 171 137 171 135 c 0,113,114
 171 127 171 127 172.5 121.5 c 128,-1,115
 174 116 174 116 180 109.5 c 128,-1,116
 186 103 186 103 199.5 99.5 c 128,-1,117
 213 96 213 96 234 95 c 0,118,119
 235 96 235 96 236 108.5 c 128,-1,120
 237 121 237 121 239 132.5 c 128,-1,121
 241 144 241 144 245 144 c 1,122,-1
 245 95 l 1,123,-1
 245 86 l 1,124,125
 244 86 244 86 244 86 c 2,126,127
 215 86 215 86 197 90 c 128,-1,128
 179 94 179 94 172 104 c 128,-1,129
 165 114 165 114 163 121.5 c 128,-1,130
 161 129 161 129 161 146 c 1,131,-1
 160 146 l 1,132,-1
 96 146 l 1,133,-1
 95 146 l 1,134,135
 94 125 94 125 91 116 c 0,136,137
 91 115 91 115 95.5 110 c 128,-1,138
 100 105 100 105 109 99.5 c 128,-1,139
 118 94 118 94 128 94 c 0,140,141
 147 94 147 94 163 116 c 1,142,-1
 168 106 l 1,143,144
 149 88 149 88 128 88 c 0,145,146
 118 88 118 88 108 92.5 c 128,-1,147
 98 97 98 97 92 101.5 c 128,-1,148
 86 106 86 106 86 106 c 1,149,150
 70 86 70 86 12 86 c 2,151,-1
 11 86 l 1,152,-1
 11 95 l 1,153,-1
 11 144 l 1,154,155
 15 144 15 144 17 132.5 c 128,-1,156
 19 121 19 121 20 108.5 c 128,-1,157
 21 96 21 96 22 95 c 0,158,159
 43 96 43 96 56.5 99.5 c 128,-1,160
 70 103 70 103 76 109.5 c 128,-1,161
 82 116 82 116 83.5 121.5 c 128,-1,162
 85 127 85 127 85 135 c 0,163,164
 85 137 85 137 85 139.5 c 128,-1,165
 85 142 85 142 85 143 c 128,-1,166
 85 144 85 144 85 145 c 256,167,168
 85 146 85 146 85 146 c 1,169,-1
 11 146 l 1,170,-1
 11 156 l 1,105,-1
EndSplineSet
Fore
Validated: 1
EndChar

StartChar: A
Encoding: 65 65 3
Width: 0
GlyphClass: 2
Flags: W
LayerCount: 2
Fore
SplineSet
0 132 m 1,0,-1
 53 132 l 1,1,-1
 53 124 l 1,2,-1
 32 124 l 1,3,-1
 0 132 l 1,0,-1
64 132 m 1,4,-1
 117 132 l 1,5,-1
 117 124 l 1,6,-1
 96 124 l 1,7,-1
 64 132 l 1,4,-1
EndSplineSet
Validated: 1
EndChar

StartChar: B
Encoding: 66 66 4
Width: 0
GlyphClass: 2
Flags: W
LayerCount: 2
Back
SplineSet
11 241 m 1,0,-1
 245 241 l 1,1,-1
 245 231 l 1,2,-1
 170 231 l 1,3,-1
 160 231 l 1,4,-1
 95 231 l 1,5,6
 95 214 95 214 93 206.5 c 128,-1,7
 91 199 91 199 84 189 c 128,-1,8
 77 179 77 179 59 175 c 128,-1,9
 41 171 41 171 12 171 c 0,10,11
 11 171 11 171 11 171 c 1,12,-1
 11 180 l 1,13,14
 36 180 36 180 52 183 c 128,-1,15
 68 186 68 186 74.5 193 c 128,-1,16
 81 200 81 200 83 205.5 c 128,-1,17
 85 211 85 211 85 220 c 0,18,19
 85 222 85 222 85 224.5 c 128,-1,20
 85 227 85 227 85 228 c 0,21,22
 85 230 85 230 85 231 c 1,23,-1
 11 231 l 1,24,-1
 11 241 l 1,0,-1
EndSplineSet
Fore
SplineSet
11 241 m 5,0,-1
 245 241 l 5,1,-1
 245 231 l 5,2,-1
 133 231 l 5,3,-1
 133 171 l 5,4,-1
 123 171 l 5,5,-1
 123 231 l 5,6,-1
 11 231 l 5,7,-1
 11 241 l 5,0,-1
EndSplineSet
Validated: 1
EndChar

StartChar: D
Encoding: 68 68 5
Width: 0
GlyphClass: 2
Flags: W
LayerCount: 2
Back
SplineSet
11 241 m 1,14,-1
 245 241 l 1,15,-1
 245 231 l 1,16,-1
 171 231 l 1,17,18
 171 230 171 230 171 228 c 0,19,20
 171 227 171 227 171 224.5 c 128,-1,21
 171 222 171 222 171 220 c 0,22,23
 171 211 171 211 173 205.5 c 128,-1,24
 175 200 175 200 181.5 193 c 128,-1,25
 188 186 188 186 204 183 c 128,-1,26
 220 180 220 180 245 180 c 1,27,-1
 245 171 l 1,28,-1
 244 171 l 2,29,30
 215 171 215 171 197 175 c 128,-1,31
 179 179 179 179 172 189 c 128,-1,32
 165 199 165 199 163 206.5 c 128,-1,33
 161 214 161 214 161 231 c 1,34,-1
 160 231 l 1,35,-1
 96 231 l 1,36,-1
 95 231 l 1,37,38
 95 225.917278906 95 225.917278906 94.8212176213 221.683774111 c 1,39,40
 110.954693635 219.481248556 110.954693635 219.481248556 130 215 c 1,41,42
 114.808510638 215.765957447 114.808510638 215.765957447 101.735626981 215.765957447 c 0,43,44
 98.0029809644 215.765957447 98.0029809644 215.765957447 94.4430542829 215.703512764 c 1,45,46
 93.9445894475 210.042210428 93.9445894475 210.042210428 93 206.5 c 0,47,48
 91 199 91 199 84 189 c 128,-1,49
 77 179 77 179 59 175 c 128,-1,50
 41 171 41 171 12 171 c 2,51,-1
 11 171 l 1,52,53
 10.8888888889 174.333333333 10.8888888889 174.333333333 10.8888888889 177.402601265 c 0,54,55
 10.8888888889 201.956744721 10.8888888889 201.956744721 18 209.610702488 c 0,56,57
 33.1029222834 223.81265016 33.1029222834 223.81265016 66.3535800495 223.81265016 c 0,58,59
 75.0553400622 223.81265016 75.0553400622 223.81265016 85 222.839988876 c 1,60,-1
 85 224.5 l 2,61,62
 85 227 85 227 85 228 c 0,63,64
 85 230 85 230 85 231 c 1,65,-1
 11 231 l 1,66,-1
 11 241 l 1,14,-1
84.8895262195 215.409687681 m 1,67,68
 21.0691558319 213.002608314 21.0691558319 213.002608314 21.0691558319 186.659072544 c 0,69,70
 21.0691558319 186.630526656 21.0691558319 186.630526656 21.0692307692 186.601952663 c 1,71,72
 21.0692307692 183.469230769 21.0692307692 183.469230769 22 180 c 1,73,74
 44 181 44 181 57.5 184 c 128,-1,75
 71 187 71 187 76.5 194 c 128,-1,76
 82 201 82 201 83.5 206 c 0,77,78
 84.5929242445 209.643080815 84.5929242445 209.643080815 84.8895262195 215.409687681 c 1,67,68
EndSplineSet
Fore
SplineSet
20 181 m 5,0,-1
 20 231 l 5,1,-1
 11 231 l 5,2,-1
 11 241 l 5,3,-1
 20 241 l 5,4,-1
 142 241 l 5,5,-1
 245 241 l 5,6,-1
 245 231 l 5,7,-1
 142 231 l 5,8,-1
 133 231 l 5,9,-1
 133 181 l 5,10,-1
 245 181 l 5,11,-1
 245 171 l 5,12,-1
 133 171 l 5,13,-1
 123 171 l 5,14,-1
 30 171 l 5,15,-1
 20 171 l 5,16,-1
 11 171 l 5,17,-1
 11 181 l 5,18,-1
 20 181 l 5,0,-1
30 181 m 5,19,-1
 123 181 l 5,20,-1
 123 231 l 5,21,-1
 30 231 l 5,22,-1
 30 181 l 5,19,-1
EndSplineSet
Validated: 1
EndChar

StartChar: F
Encoding: 70 70 6
Width: 0
GlyphClass: 2
Flags: W
LayerCount: 2
Fore
SplineSet
59 239 m 1,0,1
 52 237 52 237 46 235 c 0,2,3
 16 226 16 226 16 213 c 128,-1,4
 16 200 16 200 46 191 c 128,-1,5
 76 182 76 182 120 182 c 128,-1,6
 164 182 164 182 194 191 c 0,7,8
 201 193 201 193 206 195 c 2,9,10
 206 195 206 195 213 193 c 1,11,12
 206 190 206 190 198 187 c 0,13,14
 166 176 166 176 120 176 c 128,-1,15
 74 176 74 176 42 187 c 128,-1,16
 10 198 10 198 10 213 c 128,-1,17
 10 228 10 228 42 239 c 0,18,19
 46 240 46 240 49 241 c 2,20,21
 49 241 49 241 59 239 c 1,0,1
EndSplineSet
Validated: 1
EndChar

StartChar: G
Encoding: 71 71 7
Width: 0
VWidth: 341
GlyphClass: 2
Flags: W
LayerCount: 2
Back
SplineSet
125.956054688 215.013671875 m 4,31,32
 113.197265625 215.104492188 113.197265625 215.104492188 101.735351562 215.765625 c 4,33,34
 98 216 98 216 94.443359375 215.703125 c 4,35,36
 94 210 94 210 93 206.5 c 132,-1,37
 92.10546875 203.145507812 92.10546875 203.145507812 90.2109375 199.291015625 c 4,38,39
 90.833984375 198.58984375 90.833984375 198.58984375 91.4873046875 197.900390625 c 4,40,41
 106.787109375 181.75 106.787109375 181.75 128.037109375 181.75 c 132,-1,42
 149.287109375 181.75 149.287109375 181.75 164.587890625 197.900390625 c 4,43,44
 165.177734375 198.5234375 165.177734375 198.5234375 165.744140625 199.15625 c 4,45,46
 163.798828125 203.086914062 163.798828125 203.086914062 162.888671875 206.5 c 132,-1,47
 161.888671875 210 161.888671875 210 161.4453125 215.703125 c 4,48,49
 157.888671875 216 157.888671875 216 154.153320312 215.765625 c 4,50,51
 142.69140625 215.104492188 142.69140625 215.104492188 129.932617188 215.013671875 c 4,52,53
 128.967773438 215 128.967773438 215 127.944335938 215.00390625 c 132,-1,54
 126.920898438 215 126.920898438 215 125.956054688 215.013671875 c 4,31,32
127.944335938 215.430664062 m 5,55,56
 145.767578125 219.145507812 145.767578125 219.145507812 161.067382812 221.68359375 c 5,57,58
 160.888671875 226 160.888671875 226 160.888671875 231 c 5,59,-1
 95 231 l 5,60,61
 95 226 95 226 94.8212890625 221.68359375 c 5,62,63
 110.12109375 219.145507812 110.12109375 219.145507812 127.944335938 215.430664062 c 5,55,56
170.999023438 215.41015625 m 5,64,65
 171.295898438 209.643554688 171.295898438 209.643554688 172.388671875 206 c 4,66,67
 173.888671875 201 173.888671875 201 179.388671875 194 c 132,-1,68
 184.888671875 187 184.888671875 187 198.388671875 184 c 132,-1,69
 211.888671875 181 211.888671875 181 233.888671875 180 c 4,70,71
 234.819335938 183.46875 234.819335938 183.46875 234.819335938 186.6015625 c 4,72,73
 234.819335938 213.002929688 234.819335938 213.002929688 170.999023438 215.41015625 c 5,64,65
84.8896484375 215.41015625 m 5,74,75
 21.0693359375 213.002929688 21.0693359375 213.002929688 21.0693359375 186.659179688 c 4,76,77
 21.0693359375 183.46875 21.0693359375 183.46875 22 180 c 4,78,79
 44 181 44 181 57.5 184 c 132,-1,80
 71 187 71 187 76.5 194 c 132,-1,81
 82 201 82 201 83.5 206 c 4,82,83
 84.5927734375 209.643554688 84.5927734375 209.643554688 84.8896484375 215.41015625 c 5,74,75
85.2158203125 190.7734375 m 5,84,85
 84.6279296875 189.896484375 84.6279296875 189.896484375 84 189 c 4,86,87
 77 179 77 179 59 175 c 132,-1,88
 41 171 41 171 12 171 c 6,89,-1
 11 171 l 5,90,91
 11 174 11 174 10.888671875 177.40234375 c 4,92,93
 11 202 11 202 18 209.610351562 c 4,94,95
 32.806640625 223.814453125 32.806640625 223.814453125 65.498046875 223.814453125 c 4,96,97
 65.9248046875 223.814453125 65.9248046875 223.814453125 66.353515625 223.8125 c 4,98,99
 67.556640625 223.838867188 67.556640625 223.838867188 68.7861328125 223.838867188 c 4,100,101
 76.3916015625 223.838867188 76.3916015625 223.838867188 85 222.83984375 c 5,102,-1
 85 224.5 l 5,103,-1
 85 228 l 5,104,-1
 85 231 l 5,105,-1
 10.888671875 231 l 5,106,-1
 10.888671875 241 l 5,107,-1
 244.888671875 241 l 5,108,-1
 244.888671875 231 l 5,109,-1
 170.888671875 231 l 5,110,-1
 170.888671875 228 l 5,111,-1
 170.888671875 224.5 l 5,112,-1
 170.888671875 222.83984375 l 5,113,114
 179.497070312 223.838867188 179.497070312 223.838867188 187.102539062 223.838867188 c 4,115,116
 188.33203125 223.838867188 188.33203125 223.838867188 189.53515625 223.8125 c 4,117,-1
 189.546875 223.8125 l 4,118,119
 223.083984375 223.8125 223.083984375 223.8125 237.888671875 209.610351562 c 4,120,121
 244.888671875 202 244.888671875 202 245 177.40234375 c 4,122,123
 244.888671875 174 244.888671875 174 244.888671875 171 c 5,124,-1
 243.888671875 171 l 6,125,126
 214.888671875 171 214.888671875 171 196.888671875 175 c 132,-1,127
 178.888671875 179 178.888671875 179 171.888671875 189 c 4,128,129
 171.28515625 189.862304688 171.28515625 189.862304688 170.71875 190.705078125 c 5,130,131
 153 172 153 172 127.977539062 172 c 133,-1,132
 103.149414062 172 103.149414062 172 85.2158203125 190.7734375 c 5,84,85
EndSplineSet
Fore
SplineSet
20 181 m 1,0,-1
 20 231 l 1,1,-1
 11 231 l 1,2,-1
 11 241 l 1,3,-1
 20 241 l 1,4,-1
 113 241 l 1,5,-1
 142 241 l 1,6,-1
 242 241 l 1,7,-1
 245 241 l 1,8,-1
 245 231 l 1,9,-1
 242 231 l 1,10,-1
 235 231 l 1,11,-1
 235 181 l 1,12,-1
 245 181 l 1,13,-1
 245 171 l 1,14,-1
 235 171 l 1,15,-1
 225 171 l 1,16,-1
 133 171 l 1,17,-1
 123 171 l 1,18,-1
 30 171 l 1,19,-1
 20 171 l 1,20,-1
 11 171 l 1,21,-1
 11 181 l 1,22,-1
 20 181 l 1,0,-1
30 181 m 1,23,-1
 123 181 l 1,24,-1
 123 201 l 1,25,-1
 30 201 l 1,26,-1
 30 181 l 1,23,-1
142 231 m 1,27,-1
 133 231 l 1,28,-1
 133 211 l 1,29,-1
 225 211 l 1,30,-1
 225 231 l 1,31,-1
 142 231 l 1,27,-1
113 231 m 1,32,-1
 30 231 l 1,33,-1
 30 211 l 1,34,-1
 123 211 l 1,35,-1
 123 231 l 1,36,-1
 113 231 l 1,32,-1
225 201 m 1,37,-1
 133 201 l 1,38,-1
 133 181 l 1,39,-1
 225 181 l 1,40,-1
 225 201 l 1,37,-1
EndSplineSet
Validated: 2049
EndChar

StartChar: I
Encoding: 73 73 8
Width: 0
GlyphClass: 2
Flags: W
LayerCount: 2
Fore
SplineSet
41 128 m 128,-1,1
 41 138 41 138 47.5 144.5 c 128,-1,2
 54 151 54 151 64 151 c 128,-1,3
 74 151 74 151 80.5 144.5 c 128,-1,4
 87 138 87 138 87 128 c 128,-1,5
 87 118 87 118 80.5 111.5 c 128,-1,6
 74 105 74 105 64 105 c 128,-1,7
 54 105 54 105 47.5 111.5 c 128,-1,0
 41 118 41 118 41 128 c 128,-1,1
EndSplineSet
Validated: 1
EndChar

StartChar: J
Encoding: 74 74 9
Width: 0
GlyphClass: 2
Flags: W
LayerCount: 2
Fore
SplineSet
151 213 m 1,0,-1
 140 219 l 1,1,-1
 140 233 l 1,2,-1
 128 226 l 1,3,-1
 116 233 l 1,4,-1
 116 219 l 1,5,-1
 105 213 l 1,6,-1
 116 206 l 1,7,-1
 116 192 l 1,8,-1
 128 199 l 1,9,-1
 140 192 l 1,10,-1
 140 206 l 1,11,-1
 151 213 l 1,0,-1
169.400390625 212.599609375 m 1,12,-1
 149.599609375 201.799804688 l 1,13,-1
 149.599609375 176.599609375 l 1,14,-1
 128 189.200195312 l 1,15,-1
 106.400390625 176.599609375 l 1,16,-1
 106.400390625 201.799804688 l 1,17,-1
 86.599609375 212.599609375 l 1,18,-1
 106.400390625 225.200195312 l 1,19,-1
 106.400390625 250.400390625 l 1,20,-1
 128 237.799804688 l 1,21,-1
 149.599609375 250.400390625 l 1,22,-1
 149.599609375 225.200195312 l 1,23,-1
 169.400390625 212.599609375 l 1,12,-1
EndSplineSet
Validated: 524289
EndChar

StartChar: K
Encoding: 75 75 10
Width: 0
GlyphClass: 2
Flags: W
LayerCount: 2
Back
SplineSet
84.8896484375 215.41015625 m 1,0,1
 21.0693359375 213.002929688 21.0693359375 213.002929688 21.0693359375 186.659179688 c 0,2,3
 21.0693359375 186.630859375 21.0693359375 186.630859375 21.0693359375 186.6015625 c 0,4,5
 21.0693359375 183.46875 21.0693359375 183.46875 22 180 c 0,6,7
 44 181 44 181 57.5 184 c 128,-1,8
 71 187 71 187 76.5 194 c 128,-1,9
 82 201 82 201 83.5 206 c 0,10,11
 84.5927734375 209.643554688 84.5927734375 209.643554688 84.8896484375 215.41015625 c 1,0,1
170.999023438 215.41015625 m 1,12,13
 171.295898438 209.643554688 171.295898438 209.643554688 172.388671875 206 c 0,14,15
 173.888671875 201 173.888671875 201 179.388671875 194 c 128,-1,16
 184.888671875 187 184.888671875 187 198.388671875 184 c 128,-1,17
 211.888671875 181 211.888671875 181 233.888671875 180 c 0,18,19
 234.819335938 183.46875 234.819335938 183.46875 234.819335938 186.6015625 c 0,20,21
 234.819335938 186.630859375 234.819335938 186.630859375 234.819335938 186.659179688 c 0,22,23
 234.819335938 213.002929688 234.819335938 213.002929688 170.999023438 215.41015625 c 1,12,13
127.944335938 215.430664062 m 1,24,25
 145.767578125 219.145507812 145.767578125 219.145507812 161.067382812 221.68359375 c 1,26,27
 160.888671875 226 160.888671875 226 160.888671875 231 c 1,28,-1
 95 231 l 1,29,30
 95 226 95 226 94.8212890625 221.68359375 c 1,31,32
 110.12109375 219.145507812 110.12109375 219.145507812 127.944335938 215.430664062 c 1,24,25
125.956054688 215.013671875 m 1,33,34
 113.197265625 215.104492188 113.197265625 215.104492188 101.735351562 215.765625 c 0,35,36
 98 216 98 216 94.443359375 215.703125 c 0,37,38
 94 210 94 210 93 206.5 c 0,39,40
 91 199 91 199 84 189 c 128,-1,41
 77 179 77 179 59 175 c 128,-1,42
 41 171 41 171 12 171 c 2,43,-1
 11 171 l 1,44,45
 11 174 11 174 10.888671875 177.40234375 c 0,46,47
 11 202 11 202 18 209.610351562 c 0,48,49
 32.806640625 223.814453125 32.806640625 223.814453125 65.498046875 223.814453125 c 0,50,51
 65.9248046875 223.814453125 65.9248046875 223.814453125 66.353515625 223.8125 c 0,52,53
 67.556640625 223.838867188 67.556640625 223.838867188 68.7861328125 223.838867188 c 0,54,55
 76.3916015625 223.838867188 76.3916015625 223.838867188 85 222.83984375 c 1,56,-1
 85 224.5 l 2,57,58
 85 225 85 225 85 228 c 0,59,60
 85 230 85 230 85 231 c 1,61,-1
 11 231 l 1,62,-1
 10.888671875 231 l 1,63,-1
 10.888671875 241 l 1,64,-1
 11 241 l 1,65,-1
 244.888671875 241 l 1,66,-1
 245 241 l 1,67,-1
 245 231 l 1,68,-1
 244.888671875 231 l 1,69,-1
 170.888671875 231 l 1,70,71
 170.888671875 230 170.888671875 230 170.888671875 228 c 0,72,73
 170.888671875 225 170.888671875 225 170.888671875 224.5 c 2,74,-1
 170.888671875 222.83984375 l 1,75,76
 179.497070312 223.838867188 179.497070312 223.838867188 187.102539062 223.838867188 c 0,77,78
 188.33203125 223.838867188 188.33203125 223.838867188 189.53515625 223.8125 c 0,79,80
 189.963867188 223.814453125 189.963867188 223.814453125 190.390625 223.814453125 c 0,81,82
 223.08203125 223.814453125 223.08203125 223.814453125 237.888671875 209.610351562 c 0,83,84
 244.888671875 202 244.888671875 202 245 177.40234375 c 0,85,86
 244.888671875 174 244.888671875 174 244.888671875 171 c 1,87,-1
 243.888671875 171 l 2,88,89
 214.888671875 171 214.888671875 171 196.888671875 175 c 128,-1,90
 178.888671875 179 178.888671875 179 171.888671875 189 c 128,-1,91
 164.888671875 199 164.888671875 199 162.888671875 206.5 c 0,92,93
 161.888671875 210 161.888671875 210 161.4453125 215.703125 c 0,94,95
 157.888671875 216 157.888671875 216 154.153320312 215.765625 c 0,96,97
 142.69140625 215.104492188 142.69140625 215.104492188 129.932617188 215.013671875 c 1,98,99
 129.966796875 215.006835938 129.966796875 215.006835938 130 215 c 1,100,101
 128.967773438 215 128.967773438 215 127.944335938 215.00390625 c 128,-1,102
 126.920898438 215 126.920898438 215 125.888671875 215 c 1,103,104
 125.921875 215.006835938 125.921875 215.006835938 125.956054688 215.013671875 c 1,33,34
EndSplineSet
Fore
SplineSet
30 181 m 5,0,-1
 123 181 l 5,1,-1
 123 201 l 5,2,-1
 30 201 l 5,3,-1
 30 181 l 5,0,-1
20 181 m 5,4,-1
 20 231 l 5,5,-1
 11 231 l 5,6,-1
 11 241 l 5,7,-1
 20 241 l 5,8,-1
 142 241 l 5,9,-1
 245 241 l 5,10,-1
 245 231 l 5,11,-1
 142 231 l 5,12,-1
 133 231 l 5,13,-1
 133 211 l 5,14,-1
 148 211 l 5,15,-1
 148 201 l 5,16,-1
 133 201 l 5,17,-1
 133 181 l 5,18,-1
 245 181 l 5,19,-1
 245 171 l 5,20,-1
 133 171 l 5,21,-1
 123 171 l 5,22,-1
 30 171 l 5,23,-1
 20 171 l 5,24,-1
 11 171 l 5,25,-1
 11 181 l 5,26,-1
 20 181 l 5,4,-1
123 211 m 5,27,-1
 123 231 l 5,28,-1
 30 231 l 5,29,-1
 30 211 l 5,30,-1
 123 211 l 5,27,-1
EndSplineSet
Validated: 1
EndChar

StartChar: L
Encoding: 76 76 11
Width: 0
GlyphClass: 2
Flags: W
LayerCount: 2
Back
SplineSet
71 128 m 132,-1,1
 71 80 71 80 105.5 109.5 c 132,-1,2
 140 139 140 139 188 139 c 132,-1,3
 236 139 236 139 156.5 109.5 c 132,-1,4
 77 80 77 80 77 128 c 132,-1,5
 77 176 77 176 156.5 146.5 c 132,-1,6
 236 117 236 117 188 117 c 132,-1,7
 140 117 140 117 105.5 146.5 c 132,-1,0
 71 176 71 176 71 128 c 132,-1,1
60 128 m 132,-1,9
 60 180 60 180 60 154.5 c 132,-1,10
 60 129 60 129 112 129 c 132,-1,11
 164 129 164 129 126 154.5 c 132,-1,12
 88 180 88 180 88 128 c 132,-1,13
 88 76 88 76 126 102.5 c 132,-1,14
 164 129 164 129 112 129 c 132,-1,15
 60 129 60 129 60 102.5 c 132,-1,8
 60 76 60 76 60 128 c 132,-1,9
EndSplineSet
Fore
SplineSet
111.329101562 216.625 m 1,0,-1
 127.783203125 188.125 l 1,1,-1
 144.237304688 216.625 l 1,2,-1
 111.329101562 216.625 l 1,0,-1
162.640625 187 m 1,3,-1
 93.359375 187 l 1,4,-1
 128 247 l 1,5,-1
 162.640625 187 l 1,3,-1
EndSplineSet
Validated: 524289
EndChar

StartChar: M
Encoding: 77 77 12
Width: 0
GlyphClass: 2
Flags: W
LayerCount: 2
Fore
SplineSet
128 238 m 128,-1,1
 169 238 169 238 208 211 c 1,2,3
 218 218 218 218 235 235 c 1,4,5
 235 235 235 235 245 235 c 1,6,7
 225 215 225 215 213 207 c 1,8,9
 225 199 225 199 245 179 c 1,10,11
 245 179 245 179 235 179 c 1,12,13
 218 196 218 196 208 203 c 1,14,15
 180 183 180 183 146 178 c 0,16,17
 134 176 134 176 128 176 c 0,18,19
 87 176 87 176 48 203 c 1,20,21
 38 196 38 196 21 179 c 1,22,23
 21 179 21 179 11 179 c 1,24,25
 31 199 31 199 43 207 c 1,26,27
 34 213 34 213 11 236 c 1,28,29
 11 236 11 236 20 236 c 1,30,31
 20 236 20 236 21 235 c 0,32,33
 38 218 38 218 48 211 c 1,34,0
 87 238 87 238 128 238 c 128,-1,1
128 232 m 128,-1,36
 91 232 91 232 54 207 c 1,37,38
 91 182 91 182 128 182 c 128,-1,39
 165 182 165 182 202 207 c 1,40,35
 165 232 165 232 128 232 c 128,-1,36
EndSplineSet
Validated: 1
EndChar

StartChar: N
Encoding: 78 78 13
Width: 0
GlyphClass: 2
Flags: W
LayerCount: 2
Fore
SplineSet
11 176 m 1,0,1
 62 229 62 229 117 234 c 0,2,3
 119 234 119 234 122.5 234.5 c 128,-1,4
 126 235 126 235 128 235 c 0,5,6
 180 235 180 235 227 193 c 0,7,8
 243 179 243 179 245 176 c 1,9,-1
 235 176 l 1,10,11
 186 225 186 225 135 229 c 1,12,13
 135 229 135 229 129 229 c 0,14,15
 83 229 83 229 36 189 c 0,16,17
 34 187 34 187 28 182.5 c 128,-1,18
 22 178 22 178 20 176 c 2,19,-1
 11 176 l 1,0,1
EndSplineSet
Validated: 1
EndChar

StartChar: P
Encoding: 80 80 14
Width: 0
GlyphClass: 2
Flags: W
LayerCount: 2
Fore
SplineSet
11 241 m 5,0,-1
 245 241 l 5,1,-1
 245 231 l 5,2,-1
 11 231 l 5,3,-1
 11 241 l 5,0,-1
EndSplineSet
Validated: 1
EndChar

StartChar: R
Encoding: 82 82 15
Width: 0
GlyphClass: 2
Flags: W
LayerCount: 2
Back
SplineSet
128 180 m 5,0,-1
 10 180 l 5,1,-1
 14 181 l 5,2,-1
 10 181 l 5,3,-1
 10 246 l 5,4,-1
 128 213 l 5,5,-1
 246 246 l 5,6,-1
 246 181 l 5,7,-1
 242 181 l 5,8,-1
 246 180 l 5,9,-1
 128 180 l 5,0,-1
115 209 m 5,10,-1
 17 237 l 5,11,-1
 17 188 l 5,12,-1
 38 188 l 5,13,-1
 115 209 l 5,10,-1
128 206 m 5,14,-1
 62 188 l 5,15,-1
 128 188 l 5,16,-1
 194 188 l 5,17,-1
 128 206 l 5,14,-1
141 209 m 5,18,-1
 218 188 l 5,19,-1
 239 188 l 5,20,-1
 239 237 l 5,21,-1
 141 209 l 5,18,-1
EndSplineSet
Fore
SplineSet
26 208 m 1,0,-1
 86 242.640625 l 1,1,-1
 86 217.883692406 l 1,2,-1
 130 208 l 1,3,-1
 86 198.116307594 l 1,4,-1
 86 173.359375 l 1,5,-1
 26 208 l 1,0,-1
37.3203125 208 m 1,6,-1
 77.5205078125 184.791015625 l 1,7,-1
 77.5205078125 201.377929688 l 1,8,-1
 107 208 l 1,9,-1
 77.5205078125 214.622070312 l 1,10,-1
 77.5205078125 231.208984375 l 1,11,-1
 37.3203125 208 l 1,6,-1
235 208 m 1,12,-1
 175 173.359375 l 1,13,-1
 175 198.116210938 l 1,14,-1
 131 208 l 1,15,-1
 175 217.883789062 l 1,16,-1
 175 242.640625 l 1,17,-1
 235 208 l 1,12,-1
223.6796875 208 m 1,18,-1
 183.479492188 231.208984375 l 1,19,-1
 183.479492188 214.622070312 l 1,20,-1
 154 208 l 1,21,-1
 183.479492188 201.377929688 l 1,22,-1
 183.479492188 184.791015625 l 1,23,-1
 223.6796875 208 l 1,18,-1
EndSplineSet
Validated: 524289
EndChar

StartChar: S
Encoding: 83 83 16
Width: 0
GlyphClass: 2
Flags: W
LayerCount: 2
Fore
SplineSet
230 213 m 1,0,1
 230 199 230 199 221 190 c 0,2,3
 211 181 211 181 196 181 c 0,4,5
 187 181 187 181 156 193 c 0,6,7
 117 209 117 209 113 211 c 0,8,9
 57 240 57 240 46 240 c 128,-1,10
 35 240 35 240 27 233 c 0,11,12
 17 223 17 223 17 213 c 1,13,-1
 10 213 l 1,14,15
 10 228 10 228 20 238 c 0,16,17
 30 247 30 247 44 247 c 0,18,19
 50 247 50 247 84 233 c 2,20,-1
 127 211 l 1,21,-1
 162 197 l 2,22,23
 187 187 187 187 194 187 c 0,24,25
 206 187 206 187 214 195 c 0,26,27
 223 204 223 204 223 213 c 1,28,-1
 230 213 l 1,0,1
EndSplineSet
Validated: 1
EndChar

StartChar: T
Encoding: 84 84 17
Width: 0
GlyphClass: 2
Flags: W
LayerCount: 2
Back
SplineSet
95 231 m 1,8,9
 95 226 95 226 94.8212176213 221.683774111 c 1,10,11
 111 219 111 219 130 215 c 1,12,13
 115 215 115 215 101.735626981 215.765957447 c 0,14,15
 98 216 98 216 94.4430542829 215.703512764 c 1,16,17
 94 210 94 210 93 206.5 c 0,18,19
 91 199 91 199 84 189 c 128,-1,20
 77 179 77 179 59 175 c 128,-1,21
 41 171 41 171 12 171 c 2,22,-1
 11 171 l 1,23,24
 11 174 11 174 10.8888888889 177.402601265 c 0,25,26
 11 202 11 202 18 209.610702488 c 0,27,28
 32.807208919 223.815058119 32.807208919 223.815058119 65.4992422302 223.815058119 c 0,29,30
 65.9248951994 223.815058119 65.9248951994 223.815058119 66.3535800495 223.81265016 c 0,31,32
 67.5558602384 223.838701058 67.5558602384 223.838701058 68.7843115694 223.838701058 c 0,33,34
 76.3904947895 223.838701058 76.3904947895 223.838701058 85 222.839988876 c 1,35,-1
 85 224.5 l 2,36,37
 85 225 85 225 85 228 c 0,38,39
 85 230 85 230 85 231 c 1,40,-1
 11 231 l 1,41,-1
 11 241 l 1,42,-1
 245 241 l 1,43,-1
 245 231 l 1,44,-1
 95 231 l 1,8,9
84.8895262195 215.409687681 m 1,45,46
 21.0691558319 213.002608314 21.0691558319 213.002608314 21.0691558319 186.659072544 c 0,47,48
 21.0691558319 186.630526656 21.0691558319 186.630526656 21.0692307692 186.601952663 c 1,49,50
 21.0692307692 183.469230769 21.0692307692 183.469230769 22 180 c 1,51,52
 44 181 44 181 57.5 184 c 128,-1,53
 71 187 71 187 76.5 194 c 128,-1,54
 82 201 82 201 83.5 206 c 0,55,56
 84.5929242445 209.643080815 84.5929242445 209.643080815 84.8895262195 215.409687681 c 1,45,46
EndSplineSet
Fore
SplineSet
11 241 m 5,0,-1
 245 241 l 5,1,-1
 245 231 l 5,2,-1
 133 231 l 5,3,-1
 133 181 l 5,4,-1
 245 181 l 5,5,-1
 245 171 l 5,6,-1
 133 171 l 5,7,-1
 123 171 l 5,8,-1
 11 171 l 5,9,-1
 11 181 l 5,10,-1
 123 181 l 5,11,-1
 123 231 l 5,12,-1
 11 231 l 5,13,-1
 11 241 l 5,0,-1
EndSplineSet
Validated: 1
EndChar

StartChar: U
Encoding: 85 85 18
Width: 0
GlyphClass: 2
Flags: W
LayerCount: 2
Fore
SplineSet
19 154 m 5,0,-1
 19 99 l 5,1,-1
 111 99 l 5,2,-1
 111 156 l 5,3,-1
 118 161 l 5,4,-1
 118 92 l 5,5,-1
 11 92 l 5,6,-1
 11 161 l 5,7,-1
 19 154 l 5,0,-1
EndSplineSet
Validated: 1
EndChar

StartChar: V
Encoding: 86 86 19
Width: 0
GlyphClass: 2
Flags: W
LayerCount: 2
Fore
SplineSet
16 213 m 128,-1,1
 16 200 16 200 46 191 c 128,-1,2
 76 182 76 182 120 182 c 128,-1,3
 164 182 164 182 194 191 c 128,-1,4
 224 200 224 200 224 213 c 128,-1,5
 224 226 224 226 194 235 c 128,-1,6
 164 244 164 244 120 244 c 128,-1,7
 76 244 76 244 46 235 c 128,-1,0
 16 226 16 226 16 213 c 128,-1,1
10 213 m 128,-1,9
 10 228 10 228 42 239 c 128,-1,10
 74 250 74 250 120 250 c 128,-1,11
 166 250 166 250 198 239 c 128,-1,12
 230 228 230 228 230 213 c 128,-1,13
 230 198 230 198 198 187 c 128,-1,14
 166 176 166 176 120 176 c 128,-1,15
 74 176 74 176 42 187 c 128,-1,8
 10 198 10 198 10 213 c 128,-1,9
EndSplineSet
Validated: 1
EndChar

StartChar: glyph35
Encoding: 90 90 20
Width: 0
GlyphClass: 2
Flags: W
LayerCount: 2
Fore
SplineSet
19 190 m 0,0,1
 10 199 10 199 10 213 c 0,2,3
 10 228 10 228 20 238 c 0,4,5
 30 247 30 247 44 247 c 0,6,7
 50 247 50 247 84 233 c 0,8,9
 86 232 86 232 120 215 c 1,10,11
 146 229 146 229 156 233 c 0,12,13
 190 247 190 247 196 247 c 0,14,15
 210 247 210 247 220 238 c 0,16,17
 230 228 230 228 230 213 c 0,18,19
 230 199 230 199 221 190 c 0,20,21
 211 181 211 181 196 181 c 0,22,23
 187 181 187 181 156 193 c 0,24,25
 155 193 155 193 120 208 c 1,26,27
 92 196 92 196 84 193 c 0,28,29
 53 181 53 181 44 181 c 0,30,31
 29 181 29 181 19 190 c 0,0,1
26 195 m 0,32,33
 34 187 34 187 46 187 c 0,34,35
 53 187 53 187 78 197 c 2,36,37
 78 197 78 197 113 211 c 1,38,39
 113 211 113 211 113 212 c 0,40,41
 78 229 78 229 78 229 c 2,42,43
 51 240 51 240 46 240 c 0,44,45
 35 240 35 240 27 233 c 0,46,47
 17 223 17 223 17 213 c 0,48,49
 17 204 17 204 26 195 c 0,32,33
214 195 m 0,50,51
 223 204 223 204 223 213 c 0,52,53
 223 223 223 223 213 233 c 0,54,55
 205 240 205 240 194 240 c 0,56,57
 189 240 189 240 162 229 c 2,58,59
 162 229 162 229 127 212 c 1,60,-1
 127 211 l 1,61,62
 162 197 162 197 162 197 c 2,63,64
 187 187 187 187 194 187 c 0,65,66
 206 187 206 187 214 195 c 0,50,51
EndSplineSet
Validated: 1
EndChar

StartChar: a
Encoding: 97 97 21
Width: 0
GlyphClass: 2
LayerCount: 2
Fore
SplineSet
128 132 m 1,0,-1
 181 132 l 1,1,-1
 181 124 l 1,2,-1
 160 124 l 1,3,-1
 128 132 l 1,0,-1
192 132 m 1,4,-1
 245 132 l 1,5,-1
 245 124 l 1,6,-1
 224 124 l 1,7,-1
 192 132 l 1,4,-1
EndSplineSet
Validated: 1
EndChar

StartChar: b
Encoding: 98 98 22
Width: 0
GlyphClass: 2
Flags: W
LayerCount: 2
Fore
SplineSet
11 81 m 1,0,-1
 245 81 l 1,1,-1
 245 71 l 1,2,-1
 133 71 l 1,3,-1
 133 11 l 1,4,-1
 123 11 l 1,5,-1
 123 71 l 1,6,-1
 11 71 l 1,7,-1
 11 81 l 1,0,-1
EndSplineSet
Validated: 1
EndChar

StartChar: d
Encoding: 100 100 23
Width: 0
GlyphClass: 2
Flags: W
LayerCount: 2
Fore
SplineSet
20 21 m 5,0,-1
 20 71 l 5,1,-1
 11 71 l 5,2,-1
 11 81 l 5,3,-1
 20 81 l 5,4,-1
 142 81 l 5,5,-1
 245 81 l 5,6,-1
 245 71 l 5,7,-1
 142 71 l 5,8,-1
 133 71 l 5,9,-1
 133 21 l 5,10,-1
 245 21 l 5,11,-1
 245 11 l 5,12,-1
 133 11 l 5,13,-1
 123 11 l 5,14,-1
 30 11 l 5,15,-1
 20 11 l 5,16,-1
 11 11 l 5,17,-1
 11 21 l 5,18,-1
 20 21 l 5,0,-1
30 21 m 5,19,-1
 123 21 l 5,20,-1
 123 71 l 5,21,-1
 30 71 l 5,22,-1
 30 21 l 5,19,-1
EndSplineSet
Validated: 1
EndChar

StartChar: g
Encoding: 103 103 24
Width: 0
VWidth: 341
GlyphClass: 2
Flags: W
LayerCount: 2
Fore
SplineSet
20 21 m 1,0,-1
 20 71 l 1,1,-1
 11 71 l 1,2,-1
 11 81 l 1,3,-1
 20 81 l 1,4,-1
 113 81 l 1,5,-1
 142 81 l 1,6,-1
 242 81 l 1,7,-1
 245 81 l 1,8,-1
 245 71 l 1,9,-1
 242 71 l 1,10,-1
 235 71 l 1,11,-1
 235 21 l 1,12,-1
 245 21 l 1,13,-1
 245 11 l 1,14,-1
 235 11 l 1,15,-1
 225 11 l 1,16,-1
 133 11 l 1,17,-1
 123 11 l 1,18,-1
 30 11 l 1,19,-1
 20 11 l 1,20,-1
 11 11 l 1,21,-1
 11 21 l 1,22,-1
 20 21 l 1,0,-1
30 21 m 1,23,-1
 123 21 l 1,24,-1
 123 41 l 1,25,-1
 30 41 l 1,26,-1
 30 21 l 1,23,-1
142 71 m 1,27,-1
 133 71 l 1,28,-1
 133 51 l 1,29,-1
 225 51 l 1,30,-1
 225 71 l 1,31,-1
 142 71 l 1,27,-1
113 71 m 1,32,-1
 30 71 l 1,33,-1
 30 51 l 1,34,-1
 123 51 l 1,35,-1
 123 71 l 1,36,-1
 113 71 l 1,32,-1
225 41 m 1,37,-1
 133 41 l 1,38,-1
 133 21 l 1,39,-1
 225 21 l 1,40,-1
 225 41 l 1,37,-1
EndSplineSet
Validated: 2049
EndChar

StartChar: i
Encoding: 105 105 25
Width: 0
GlyphClass: 2
Flags: W
LayerCount: 2
Fore
SplineSet
153 128 m 128,-1,1
 153 138 153 138 159.5 144.5 c 128,-1,2
 166 151 166 151 176 151 c 128,-1,3
 186 151 186 151 192.5 144.5 c 128,-1,4
 199 138 199 138 199 128 c 128,-1,5
 199 118 199 118 192.5 111.5 c 128,-1,6
 186 105 186 105 176 105 c 128,-1,7
 166 105 166 105 159.5 111.5 c 128,-1,0
 153 118 153 118 153 128 c 128,-1,1
EndSplineSet
Validated: 1
EndChar

StartChar: k
Encoding: 107 107 26
Width: 0
GlyphClass: 2
Flags: W
LayerCount: 2
Fore
SplineSet
20 21 m 1,0,-1
 20 71 l 1,1,-1
 11 71 l 1,2,-1
 11 81 l 1,3,-1
 20 81 l 1,4,-1
 142 81 l 1,5,-1
 245 81 l 1,6,-1
 245 71 l 1,7,-1
 142 71 l 1,8,-1
 133 71 l 1,9,-1
 133 51 l 1,10,-1
 148 51 l 1,11,-1
 148 41 l 1,12,-1
 133 41 l 1,13,-1
 133 21 l 1,14,-1
 245 21 l 1,15,-1
 245 11 l 1,16,-1
 133 11 l 1,17,-1
 123 11 l 1,18,-1
 30 11 l 1,19,-1
 20 11 l 1,20,-1
 11 11 l 1,21,-1
 11 21 l 1,22,-1
 20 21 l 1,0,-1
30 21 m 1,23,-1
 123 21 l 1,24,-1
 123 41 l 1,25,-1
 30 41 l 1,26,-1
 30 21 l 1,23,-1
123 51 m 1,27,-1
 123 71 l 1,28,-1
 30 71 l 1,29,-1
 30 51 l 1,30,-1
 123 51 l 1,27,-1
EndSplineSet
Validated: 1
EndChar

StartChar: m
Encoding: 109 109 27
Width: 0
GlyphClass: 2
Flags: W
LayerCount: 2
Fore
SplineSet
128 78 m 128,-1,1
 169 78 169 78 208 51 c 1,2,3
 218 58 218 58 235 75 c 1,4,5
 235 75 235 75 245 75 c 1,6,7
 225 55 225 55 213 47 c 1,8,9
 225 39 225 39 245 19 c 1,10,11
 245 19 245 19 235 19 c 1,12,13
 218 36 218 36 208 43 c 1,14,15
 180 23 180 23 146 18 c 0,16,17
 134 16 134 16 128 16 c 0,18,19
 87 16 87 16 48 43 c 1,20,21
 38 36 38 36 21 19 c 1,22,23
 21 19 21 19 11 19 c 1,24,25
 31 39 31 39 43 47 c 1,26,27
 34 53 34 53 11 76 c 1,28,29
 11 76 11 76 20 76 c 1,30,31
 20 76 20 76 21 75 c 0,32,33
 38 58 38 58 48 51 c 1,34,0
 87 78 87 78 128 78 c 128,-1,1
128 72 m 128,-1,36
 91 72 91 72 54 47 c 1,37,38
 91 22 91 22 128 22 c 128,-1,39
 165 22 165 22 202 47 c 1,40,35
 165 72 165 72 128 72 c 128,-1,36
EndSplineSet
Validated: 1
EndChar

StartChar: n
Encoding: 110 110 28
Width: 0
GlyphClass: 2
Flags: W
LayerCount: 2
Fore
SplineSet
11 16 m 1,0,1
 62 69 62 69 117 74 c 0,2,3
 119 74 119 74 122.5 74.5 c 128,-1,4
 126 75 126 75 128 75 c 0,5,6
 180 75 180 75 227 33 c 0,7,8
 243 19 243 19 245 16 c 1,9,-1
 235 16 l 1,10,11
 186 65 186 65 135 69 c 1,12,13
 135 69 135 69 129 69 c 0,14,15
 83 69 83 69 36 29 c 0,16,17
 34 27 34 27 28 22.5 c 128,-1,18
 22 18 22 18 20 16 c 2,19,-1
 11 16 l 1,0,1
EndSplineSet
Validated: 1
EndChar

StartChar: p
Encoding: 112 112 29
Width: 0
GlyphClass: 2
Flags: W
LayerCount: 2
Fore
SplineSet
11 81 m 5,0,-1
 245 81 l 5,1,-1
 245 71 l 5,2,-1
 11 71 l 5,3,-1
 11 81 l 5,0,-1
EndSplineSet
Validated: 1
EndChar

StartChar: r
Encoding: 114 114 30
Width: 0
GlyphClass: 2
Flags: W
LayerCount: 2
Fore
SplineSet
26 48 m 1,0,-1
 86 82.640625 l 1,1,-1
 86 57.8837890625 l 1,2,-1
 130 48 l 1,3,-1
 86 38.1162109375 l 1,4,-1
 86 13.359375 l 1,5,-1
 26 48 l 1,0,-1
37.3203125 48 m 1,6,-1
 77.5205078125 24.791015625 l 1,7,-1
 77.5205078125 41.3779296875 l 1,8,-1
 107 48 l 1,9,-1
 77.5205078125 54.6220703125 l 1,10,-1
 77.5205078125 71.208984375 l 1,11,-1
 37.3203125 48 l 1,6,-1
235 48 m 1,12,-1
 175 13.359375 l 1,13,-1
 175 38.1162109375 l 1,14,-1
 131 48 l 1,15,-1
 175 57.8837890625 l 1,16,-1
 175 82.640625 l 1,17,-1
 235 48 l 1,12,-1
223.6796875 48 m 1,18,-1
 183.479492188 71.208984375 l 1,19,-1
 183.479492188 54.6220703125 l 1,20,-1
 154 48 l 1,21,-1
 183.479492188 41.3779296875 l 1,22,-1
 183.479492188 24.791015625 l 1,23,-1
 223.6796875 48 l 1,18,-1
EndSplineSet
Validated: 524289
EndChar

StartChar: glyph47
Encoding: 115 115 31
Width: 0
GlyphClass: 2
Flags: W
LayerCount: 2
Fore
SplineSet
230 53 m 1,0,1
 230 39 230 39 221 30 c 0,2,3
 211 21 211 21 196 21 c 0,4,5
 187 21 187 21 156 33 c 0,6,7
 117 49 117 49 113 51 c 0,8,9
 57 80 57 80 46 80 c 128,-1,10
 35 80 35 80 27 73 c 0,11,12
 17 63 17 63 17 53 c 1,13,-1
 10 53 l 1,14,15
 10 68 10 68 20 78 c 0,16,17
 30 87 30 87 44 87 c 0,18,19
 50 87 50 87 84 73 c 2,20,-1
 127 51 l 1,21,-1
 162 37 l 2,22,23
 187 27 187 27 194 27 c 0,24,25
 206 27 206 27 214 35 c 0,26,27
 223 44 223 44 223 53 c 1,28,-1
 230 53 l 1,0,1
EndSplineSet
Validated: 1
EndChar

StartChar: t
Encoding: 116 116 32
Width: 0
GlyphClass: 2
Flags: W
LayerCount: 2
Fore
SplineSet
11 81 m 5,0,-1
 245 81 l 5,1,-1
 245 71 l 5,2,-1
 133 71 l 5,3,-1
 133 21 l 5,4,-1
 245 21 l 5,5,-1
 245 11 l 5,6,-1
 133 11 l 5,7,-1
 123 11 l 5,8,-1
 11 11 l 5,9,-1
 11 21 l 5,10,-1
 123 21 l 5,11,-1
 123 71 l 5,12,-1
 11 71 l 5,13,-1
 11 81 l 5,0,-1
EndSplineSet
Validated: 1
EndChar

StartChar: u
Encoding: 117 117 33
Width: 0
GlyphClass: 2
Flags: W
LayerCount: 2
Fore
SplineSet
149 154 m 1,0,-1
 149 99 l 1,1,-1
 238 99 l 1,2,-1
 238 156 l 1,3,-1
 245 161 l 1,4,-1
 245 92 l 1,5,-1
 141 92 l 1,6,-1
 141 161 l 1,7,-1
 149 154 l 1,0,-1
EndSplineSet
Validated: 1
EndChar

StartChar: v
Encoding: 118 118 34
Width: 0
GlyphClass: 2
Flags: W
LayerCount: 2
Fore
SplineSet
16 53 m 128,-1,1
 16 40 16 40 46 31 c 128,-1,2
 76 22 76 22 120 22 c 128,-1,3
 164 22 164 22 194 31 c 128,-1,4
 224 40 224 40 224 53 c 128,-1,5
 224 66 224 66 194 75 c 128,-1,6
 164 84 164 84 120 84 c 128,-1,7
 76 84 76 84 46 75 c 128,-1,0
 16 66 16 66 16 53 c 128,-1,1
10 53 m 128,-1,9
 10 68 10 68 42 79 c 128,-1,10
 74 90 74 90 120 90 c 128,-1,11
 166 90 166 90 198 79 c 128,-1,12
 230 68 230 68 230 53 c 128,-1,13
 230 38 230 38 198 27 c 128,-1,14
 166 16 166 16 120 16 c 128,-1,15
 74 16 74 16 42 27 c 128,-1,8
 10 38 10 38 10 53 c 128,-1,9
EndSplineSet
Validated: 1
EndChar

StartChar: z
Encoding: 122 122 35
Width: 0
GlyphClass: 2
Flags: W
LayerCount: 2
Fore
SplineSet
19 30 m 0,0,1
 10 39 10 39 10 53 c 0,2,3
 10 68 10 68 20 78 c 0,4,5
 30 87 30 87 44 87 c 0,6,7
 50 87 50 87 84 73 c 0,8,9
 86 72 86 72 120 55 c 1,10,11
 146 69 146 69 156 73 c 0,12,13
 190 87 190 87 196 87 c 0,14,15
 210 87 210 87 220 78 c 0,16,17
 230 68 230 68 230 53 c 0,18,19
 230 39 230 39 221 30 c 0,20,21
 211 21 211 21 196 21 c 0,22,23
 187 21 187 21 156 33 c 0,24,25
 155 33 155 33 120 48 c 1,26,27
 92 36 92 36 84 33 c 0,28,29
 53 21 53 21 44 21 c 0,30,31
 29 21 29 21 19 30 c 0,0,1
26 35 m 0,32,33
 34 27 34 27 46 27 c 0,34,35
 53 27 53 27 78 37 c 2,36,37
 78 37 78 37 113 51 c 1,38,39
 113 51 113 51 113 52 c 0,40,41
 78 69 78 69 78 69 c 2,42,43
 51 80 51 80 46 80 c 0,44,45
 35 80 35 80 27 73 c 0,46,47
 17 63 17 63 17 53 c 0,48,49
 17 44 17 44 26 35 c 0,32,33
214 35 m 0,50,51
 223 44 223 44 223 53 c 0,52,53
 223 63 223 63 213 73 c 0,54,55
 205 80 205 80 194 80 c 0,56,57
 189 80 189 80 162 69 c 2,58,59
 162 69 162 69 127 52 c 1,60,-1
 127 51 l 1,61,62
 162 37 162 37 162 37 c 2,63,64
 187 27 187 27 194 27 c 0,65,66
 206 27 206 27 214 35 c 0,50,51
EndSplineSet
Validated: 1
EndChar

StartChar: exclamdown
Encoding: 161 161 36
Width: 0
GlyphClass: 2
Flags: W
LayerCount: 2
Fore
SplineSet
128 180 m 5,0,-1
 10 180 l 5,1,-1
 14 181 l 5,2,-1
 10 181 l 5,3,-1
 10 246 l 5,4,-1
 128 213 l 5,5,-1
 246 246 l 5,6,-1
 246 181 l 5,7,-1
 242 181 l 5,8,-1
 246 180 l 5,9,-1
 128 180 l 5,0,-1
115 209 m 5,10,-1
 17 237 l 5,11,-1
 17 188 l 5,12,-1
 38 188 l 5,13,-1
 115 209 l 5,10,-1
128 206 m 5,14,-1
 62 188 l 5,15,-1
 128 188 l 5,16,-1
 194 188 l 5,17,-1
 128 206 l 5,14,-1
141 209 m 5,18,-1
 218 188 l 5,19,-1
 239 188 l 5,20,-1
 239 237 l 5,21,-1
 141 209 l 5,18,-1
EndSplineSet
Validated: 1
EndChar

StartChar: degree
Encoding: 176 176 37
Width: 0
GlyphClass: 2
Flags: W
LayerCount: 2
Fore
SplineSet
199 21 m 1,0,-1
 17 72 l 1,1,-1
 17 23 l 1,2,-1
 199 21 l 1,0,-1
246 15 m 1,3,-1
 10 15 l 1,4,-1
 10 81 l 1,5,-1
 246 15 l 1,3,-1
EndSplineSet
Validated: 1
EndChar

StartChar: uni00B3
Encoding: 179 179 38
Width: 0
GlyphClass: 2
Flags: W
LayerCount: 2
Fore
SplineSet
15 240 m 1,0,-1
 51 179 l 1,1,-1
 94 240 l 1,2,-1
 129 203 l 1,3,-1
 164 240 l 1,4,-1
 207 179 l 1,5,-1
 243 240 l 1,6,-1
 243 228 l 1,7,-1
 207 167 l 1,8,-1
 164 228 l 1,9,-1
 129 191 l 1,10,-1
 94 228 l 1,11,-1
 51 167 l 1,12,-1
 15 228 l 1,13,-1
 15 240 l 1,0,-1
EndSplineSet
Validated: 1
EndChar

StartChar: Thorn
Encoding: 222 222 39
Width: 0
GlyphClass: 2
Flags: W
LayerCount: 2
Fore
SplineSet
151 43 m 1,0,-1
 140 36 l 1,1,-1
 140 22 l 1,2,-1
 128 29 l 1,3,-1
 116 22 l 1,4,-1
 116 36 l 1,5,-1
 105 43 l 1,6,-1
 116 49 l 1,7,-1
 116 63 l 1,8,-1
 128 56 l 1,9,-1
 140 63 l 1,10,-1
 140 49 l 1,11,-1
 151 43 l 1,0,-1
151 213 m 1,12,-1
 140 207 l 1,13,-1
 140 193 l 1,14,-1
 128 200 l 1,15,-1
 116 193 l 1,16,-1
 116 207 l 1,17,-1
 105 213 l 1,18,-1
 116 220 l 1,19,-1
 116 234 l 1,20,-1
 128 227 l 1,21,-1
 140 234 l 1,22,-1
 140 220 l 1,23,-1
 151 213 l 1,12,-1
EndSplineSet
Validated: 1
EndChar

StartChar: thorn
Encoding: 254 254 40
Width: 128
GlyphClass: 2
Flags: W
LayerCount: 2
Fore
SplineSet
48 43 m 1,0,-1
 36 36 l 1,1,-1
 36 22 l 1,2,-1
 24 29 l 1,3,-1
 12 22 l 1,4,-1
 12 36 l 1,5,-1
 2 43 l 1,6,-1
 12 49 l 1,7,-1
 12 63 l 1,8,-1
 24 56 l 1,9,-1
 36 63 l 1,10,-1
 36 49 l 1,11,-1
 48 43 l 1,0,-1
48 213 m 1,12,-1
 36 207 l 1,13,-1
 36 193 l 1,14,-1
 24 200 l 1,15,-1
 12 193 l 1,16,-1
 12 207 l 1,17,-1
 2 213 l 1,18,-1
 12 220 l 1,19,-1
 12 234 l 1,20,-1
 24 227 l 1,21,-1
 36 234 l 1,22,-1
 36 220 l 1,23,-1
 48 213 l 1,12,-1
EndSplineSet
Validated: 1
EndChar

StartChar: copyright
Encoding: 169 169 41
Width: 0
Flags: W
LayerCount: 2
Fore
SplineSet
225 90 m 2,0,1
 227 88 227 88 230 88 c 1,2,3
 215 67 215 67 183 67 c 2,4,5
 183 67 183 67 177 67 c 1,6,7
 177 67 177 67 177 60 c 0,8,9
 177 34 177 34 162.5 19.5 c 128,-1,10
 148 5 148 5 128 5 c 128,-1,11
 108 5 108 5 94 19.5 c 128,-1,12
 80 34 80 34 80 60 c 2,13,-1
 80 67 l 1,14,15
 80 67 80 67 73 67 c 0,16,17
 54 67 54 67 31 82 c 1,18,19
 33 84 33 84 36 85 c 0,20,21
 47 76 47 76 64 76 c 0,22,23
 69 76 69 76 81 78 c 1,24,25
 81 78 81 78 81.5 79 c 128,-1,26
 82 80 82 80 82 81 c 1,27,-1
 83 79 l 1,28,-1
 94 69 l 1,29,30
 93 69 93 69 92.5 68.5 c 128,-1,31
 92 68 92 68 91 68 c 0,32,33
 89 56 89 56 89 51 c 0,34,35
 89 31 89 31 100.5 20.5 c 128,-1,36
 112 10 112 10 128 10 c 128,-1,37
 144 10 144 10 155.5 20.5 c 128,-1,38
 167 31 167 31 167 51 c 0,39,40
 167 56 167 56 165 68 c 1,41,42
 165 68 165 68 164 68.5 c 128,-1,43
 163 69 163 69 162 69 c 1,44,-1
 164 70 l 1,45,-1
 173 79 l 1,46,-1
 175 81 l 1,47,48
 175 80 175 80 175.5 79 c 128,-1,49
 176 78 176 78 176 78 c 1,50,51
 187 76 187 76 192 76 c 0,52,53
 199 76 199 76 207 79.5 c 128,-1,54
 215 83 215 83 220 87 c 2,55,-1
 225 90 l 2,0,1
225 166 m 1,56,57
 207 180 207 180 192 180 c 0,58,59
 187 180 187 180 176 178 c 1,60,61
 176 178 176 178 175.5 177 c 128,-1,62
 175 176 175 176 175 176 c 1,63,-1
 173 177 l 1,64,-1
 164 186 l 1,65,-1
 162 188 l 1,66,67
 163 188 163 188 164 188.5 c 128,-1,68
 165 189 165 189 165 189 c 1,69,70
 167 200 167 200 167 205 c 0,71,72
 167 225 167 225 155.5 236 c 128,-1,73
 144 247 144 247 128 247 c 128,-1,74
 112 247 112 247 100.5 236 c 128,-1,75
 89 225 89 225 89 205 c 0,76,77
 89 200 89 200 91 189 c 0,78,79
 92 189 92 189 92.5 188.5 c 128,-1,80
 93 188 93 188 94 188 c 1,81,-1
 83 177 l 1,82,-1
 82 176 l 1,83,84
 82 176 82 176 81.5 177 c 128,-1,85
 81 178 81 178 81 178 c 1,86,87
 69 180 69 180 64 180 c 0,88,89
 47 180 47 180 36 171 c 1,90,-1
 31 174 l 1,91,92
 54 190 54 190 73 190 c 2,93,-1
 80 190 l 1,94,-1
 80 196 l 2,95,96
 80 223 80 223 94 237.5 c 128,-1,97
 108 252 108 252 128 252 c 128,-1,98
 148 252 148 252 162.5 237.5 c 128,-1,99
 177 223 177 223 177 196 c 2,100,-1
 177 190 l 1,101,-1
 183 190 l 2,102,103
 215 190 215 190 230 169 c 1,104,-1
 225 166 l 1,56,57
EndSplineSet
Validated: 1
EndChar

StartChar: cent
Encoding: 162 162 42
Width: 0
Flags: W
LayerCount: 2
Fore
SplineSet
199 101 m 1,0,-1
 17 152 l 1,1,-1
 17 103 l 1,2,-1
 199 101 l 1,0,-1
246 95 m 1,3,-1
 10 95 l 1,4,-1
 10 161 l 1,5,-1
 246 95 l 1,3,-1
EndSplineSet
Validated: 1
EndChar

StartChar: x
Encoding: 120 120 43
Width: 0
Flags: W
LayerCount: 2
Fore
SplineSet
15 80 m 1,0,-1
 51 19 l 1,1,-1
 94 80 l 1,2,-1
 129 43 l 1,3,-1
 164 80 l 1,4,-1
 207 19 l 1,5,-1
 243 80 l 1,6,-1
 243 68 l 1,7,-1
 207 7 l 1,8,-1
 164 68 l 1,9,-1
 129 31 l 1,10,-1
 94 68 l 1,11,-1
 51 7 l 1,12,-1
 15 68 l 1,13,-1
 15 80 l 1,0,-1
EndSplineSet
Validated: 1
EndChar

StartChar: X
Encoding: 88 88 44
Width: 0
Flags: W
LayerCount: 2
Fore
SplineSet
200 189 m 2,0,-1
 207 179 l 1,1,-1
 213 190 l 1,2,-1
 243 240 l 1,3,-1
 243 228 l 1,4,-1
 226 199 l 1,5,-1
 242 199 l 1,6,-1
 242 190 l 1,7,-1
 221 190 l 1,8,-1
 207 167 l 1,9,-1
 191 190 l 1,10,-1
 67 190 l 1,11,-1
 51 167 l 1,12,-1
 37 190 l 1,13,-1
 15 190 l 1,14,-1
 15 199 l 1,15,-1
 32 199 l 1,16,-1
 15 228 l 1,17,-1
 15 240 l 1,18,-1
 39 199 l 1,19,-1
 51 179 l 1,20,-1
 65 199 l 1,21,-1
 94 240 l 1,22,-1
 129 203 l 1,23,-1
 164 240 l 1,24,25
 167 235 167 235 180 217 c 128,-1,26
 193 199 193 199 200 189 c 2,0,-1
121 199 m 1,27,-1
 94 228 l 1,28,-1
 74 199 l 1,29,-1
 121 199 l 1,27,-1
184 199 m 1,30,-1
 164 228 l 1,31,-1
 137 199 l 1,32,-1
 184 199 l 1,30,-1
EndSplineSet
Validated: 1
EndChar

StartChar: f
Encoding: 102 102 45
Width: 0
Flags: W
LayerCount: 2
Fore
SplineSet
59 79 m 1,0,1
 52 77 52 77 46 75 c 0,2,3
 16 66 16 66 16 53 c 128,-1,4
 16 40 16 40 46 31 c 128,-1,5
 76 22 76 22 120 22 c 128,-1,6
 164 22 164 22 194 31 c 0,7,8
 201 33 201 33 206 35 c 2,9,10
 206 35 206 35 213 33 c 1,11,12
 206 30 206 30 198 27 c 0,13,14
 166 16 166 16 120 16 c 128,-1,15
 74 16 74 16 42 27 c 128,-1,16
 10 38 10 38 10 53 c 128,-1,17
 10 68 10 68 42 79 c 0,18,19
 46 80 46 80 49 81 c 2,20,21
 49 81 49 81 59 79 c 1,0,1
EndSplineSet
Validated: 1
EndChar

StartChar: j
Encoding: 106 106 46
Width: 0
Flags: W
LayerCount: 2
Fore
SplineSet
151 53 m 1,0,-1
 140 59 l 1,1,-1
 140 73 l 1,2,-1
 128 66 l 1,3,-1
 116 73 l 1,4,-1
 116 59 l 1,5,-1
 105 53 l 1,6,-1
 116 46 l 1,7,-1
 116 32 l 1,8,-1
 128 39 l 1,9,-1
 140 32 l 1,10,-1
 140 46 l 1,11,-1
 151 53 l 1,0,-1
169.400390625 52.599609375 m 1,12,-1
 149.599609375 41.7998046875 l 1,13,-1
 149.599609375 16.599609375 l 1,14,-1
 128 29.2001953125 l 1,15,-1
 106.400390625 16.599609375 l 1,16,-1
 106.400390625 41.7998046875 l 1,17,-1
 86.599609375 52.599609375 l 1,18,-1
 106.400390625 65.2001953125 l 1,19,-1
 106.400390625 90.400390625 l 1,20,-1
 128 77.7998046875 l 1,21,-1
 149.599609375 90.400390625 l 1,22,-1
 149.599609375 65.2001953125 l 1,23,-1
 169.400390625 52.599609375 l 1,12,-1
EndSplineSet
Validated: 524289
EndChar

StartChar: l
Encoding: 108 108 47
Width: 0
Flags: W
LayerCount: 2
Fore
SplineSet
25.75 127.359375 m 5,0,-1
 54.25 110.905273438 l 5,1,-1
 54.25 143.813476562 l 5,2,-1
 25.75 127.359375 l 5,0,-1
85 127.359375 m 5,3,-1
 25 92.71875 l 5,4,-1
 25 162 l 5,5,-1
 85 127.359375 l 5,3,-1
EndSplineSet
Validated: 524289
EndChar

StartChar: aacute
Encoding: 225 225 50
Width: 0
Flags: W
LayerCount: 2
Fore
SplineSet
64 132 m 5,0,-1
 117 132 l 5,1,-1
 117 124 l 5,2,-1
 96 124 l 5,3,-1
 64 132 l 5,0,-1
128 132 m 5,4,-1
 181 132 l 5,5,-1
 181 124 l 5,6,-1
 160 124 l 5,7,-1
 128 132 l 5,4,-1
EndSplineSet
Validated: 1
EndChar

StartChar: iacute
Encoding: 237 237 51
Width: 0
Flags: W
LayerCount: 2
Fore
SplineSet
105 128 m 128,-1,1
 105 138 105 138 111.5 144.5 c 128,-1,2
 118 151 118 151 128 151 c 128,-1,3
 138 151 138 151 144.5 144.5 c 128,-1,4
 151 138 151 138 151 128 c 128,-1,5
 151 118 151 118 144.5 111.5 c 128,-1,6
 138 105 138 105 128 105 c 128,-1,7
 118 105 118 105 111.5 111.5 c 128,-1,0
 105 118 105 118 105 128 c 128,-1,1
EndSplineSet
Validated: 1
EndChar

StartChar: uacute
Encoding: 250 250 52
Width: 0
Flags: W
LayerCount: 2
Fore
SplineSet
83 154 m 5,0,-1
 83 99 l 5,1,-1
 175 99 l 5,2,-1
 175 156 l 5,3,-1
 182 161 l 5,4,-1
 182 92 l 5,5,-1
 75 92 l 5,6,-1
 75 161 l 5,7,-1
 83 154 l 5,0,-1
EndSplineSet
Validated: 1
EndChar

StartChar: E
Encoding: 69 69 53
Width: 0
Flags: W
LayerCount: 2
Fore
SplineSet
64 132 m 5,0,-1
 117 132 l 5,1,-1
 117 124 l 5,2,-1
 96 124 l 5,3,-1
 64 132 l 5,0,-1
128 132 m 5,4,-1
 181 132 l 5,5,-1
 181 124 l 5,6,-1
 160 124 l 5,7,-1
 128 132 l 5,4,-1
EndSplineSet
Validated: 1
EndChar

StartChar: O
Encoding: 79 79 55
Width: 0
Flags: W
LayerCount: 2
Fore
SplineSet
83 154 m 5,0,-1
 83 99 l 5,1,-1
 175 99 l 5,2,-1
 175 156 l 5,3,-1
 182 161 l 5,4,-1
 182 92 l 5,5,-1
 75 92 l 5,6,-1
 75 161 l 5,7,-1
 83 154 l 5,0,-1
EndSplineSet
Validated: 1
EndChar

StartChar: Y
Encoding: 89 89 56
Width: 0
Flags: W
LayerCount: 2
Fore
SplineSet
105 128 m 128,-1,1
 105 138 105 138 111.5 144.5 c 128,-1,2
 118 151 118 151 128 151 c 128,-1,3
 138 151 138 151 144.5 144.5 c 128,-1,4
 151 138 151 138 151 128 c 128,-1,5
 151 118 151 118 144.5 111.5 c 128,-1,6
 138 105 138 105 128 105 c 128,-1,7
 118 105 118 105 111.5 111.5 c 128,-1,0
 105 118 105 118 105 128 c 128,-1,1
EndSplineSet
Validated: 1
EndChar

StartChar: w
Encoding: 119 119 57
Width: 0
VWidth: 96
Flags: W
LayerCount: 2
Fore
SplineSet
111.329101562 56.625 m 1,0,-1
 127.783203125 28.125 l 1,1,-1
 144.237304688 56.625 l 1,2,-1
 111.329101562 56.625 l 1,0,-1
162.640625 27 m 1,3,-1
 93.359375 27 l 1,4,-1
 128 87 l 1,5,-1
 162.640625 27 l 1,3,-1
EndSplineSet
Validated: 524289
EndChar
